<svg width="68" height="68" viewBox="0 0 68 68" fill="none" xmlns="http://www.w3.org/2000/svg">
<g filter="url(#filter0_d_0_84)">
<path fill-rule="evenodd" clip-rule="evenodd" d="M34 58C47.2548 58 58 47.2548 58 34C58 20.7452 47.2548 10 34 10C20.7452 10 10 20.7452 10 34C10 47.2548 20.7452 58 34 58Z" fill="#C7A17A"/>
</g>
<path d="M38.1613 25.2557C37.8344 24.9148 37.2902 24.9148 36.9518 25.2557C36.6248 25.585 36.6248 26.1332 36.9518 26.4618L43.0848 32.6401H22.8467C22.375 32.6409 22 33.0186 22 33.4939C22 33.9691 22.375 34.3591 22.8467 34.3591H43.0848L36.9518 40.5259C36.6248 40.8668 36.6248 41.4157 36.9518 41.7443C37.2902 42.0852 37.8351 42.0852 38.1613 41.7443L45.7462 34.1035C46.0846 33.7741 46.0846 33.2259 45.7462 32.8973L38.1613 25.2557Z" fill="#F9FBFF"/>
<defs>
<filter id="filter0_d_0_84" x="0" y="0" width="68" height="68" filterUnits="userSpaceOnUse" color-interpolation-filters="sRGB">
<feFlood flood-opacity="0" result="BackgroundImageFix"/>
<feColorMatrix in="SourceAlpha" type="matrix" values="0 0 0 0 0 0 0 0 0 0 0 0 0 0 0 0 0 0 127 0" result="hardAlpha"/>
<feOffset/>
<feGaussianBlur stdDeviation="5"/>
<feColorMatrix type="matrix" values="0 0 0 0 0 0 0 0 0 0 0 0 0 0 0 0 0 0 0.1 0"/>
<feBlend mode="normal" in2="BackgroundImageFix" result="effect1_dropShadow_0_84"/>
<feBlend mode="normal" in="SourceGraphic" in2="effect1_dropShadow_0_84" result="shape"/>
</filter>
</defs>
</svg>
