<svg width="62" height="62" viewBox="0 0 62 62" fill="none" xmlns="http://www.w3.org/2000/svg">
<circle cx="31" cy="31" r="31" fill="#7E4FF2"/>
<path d="M27.9993 41.0005C28.5515 41.0005 28.9993 40.5528 28.9993 40.0005C28.9993 39.4482 28.5515 39.0005 27.9993 39.0005C27.447 39.0005 26.9993 39.4482 26.9993 40.0005C26.9993 40.5528 27.447 41.0005 27.9993 41.0005Z" stroke="white" stroke-width="2" stroke-linecap="round" stroke-linejoin="round"/>
<path d="M38.9995 41.0005C39.5518 41.0005 39.9995 40.5528 39.9995 40.0005C39.9995 39.4482 39.5518 39.0005 38.9995 39.0005C38.4472 39.0005 37.9995 39.4482 37.9995 40.0005C37.9995 40.5528 38.4472 41.0005 38.9995 41.0005Z" stroke="white" stroke-width="2" stroke-linecap="round" stroke-linejoin="round"/>
<path d="M20 20H24L26.68 33.39C26.7714 33.8504 27.0219 34.264 27.3875 34.5583C27.7532 34.8526 28.2107 35.009 28.68 35H38.4C38.8693 35.009 39.3268 34.8526 39.6925 34.5583C40.0581 34.264 40.3086 33.8504 40.4 33.39L42 25H25" stroke="white" stroke-width="2" stroke-linecap="round" stroke-linejoin="round"/>
</svg>
