<svg width="62" height="62" viewBox="0 0 62 62" fill="none" xmlns="http://www.w3.org/2000/svg">
<circle cx="31" cy="31" r="31" fill="#FF800B"/>
<g clip-path="url(#clip0_1_126)">
<path d="M25.8664 36.1333H28.7998C29.0023 36.1333 29.1664 35.9691 29.1664 35.7667C29.1664 35.5641 29.0023 35.3999 28.7998 35.3999H25.8664C25.664 35.3999 25.4998 35.5641 25.4998 35.7667C25.4998 35.9691 25.664 36.1333 25.8664 36.1333Z" fill="white"/>
<path d="M20.6669 37.6059C20.7835 37.7723 20.92 37.9666 21.0783 38.2241C21.1425 38.3275 21.211 38.4323 21.2803 38.5383C21.5805 38.9049 21.7721 39.3482 21.8336 39.818V40.8999C21.8336 41.5075 22.3262 42 22.9336 42H27.3336C27.9412 42 28.4336 41.5075 28.4336 40.8999V39.4333C28.4367 39.298 28.5117 39.1745 28.6305 39.1095C29.3434 38.7429 29.9698 38.2283 30.4676 37.6001H30.6336C30.7655 37.6001 30.8968 37.5824 31.0238 37.5472L32.1634 39.2705C32.7226 40.0427 33.6725 40.4293 34.6119 40.2672C34.7918 40.2366 34.9739 40.3069 35.0864 40.4504L35.785 41.4822C36.1506 42.019 36.8819 42.1583 37.4191 41.7935L41.48 38.9791C41.738 38.8055 41.9161 38.5361 41.9747 38.2307C42.0346 37.9321 41.9737 37.6217 41.8053 37.3679C41.6417 36.9941 41.5908 36.5807 41.6586 36.1784C41.6641 36.0831 41.6692 35.9886 41.6725 35.8958C41.6831 35.5789 41.6645 35.2668 41.6465 34.9644C41.6398 34.8507 41.6333 34.7368 41.6277 34.6235C41.5643 33.1194 41.0856 31.6622 40.245 30.4134L38.0967 27.2417C37.6635 26.5725 36.7825 26.359 36.0911 26.7558C35.8175 26.9212 35.6062 27.1721 35.4897 27.4697C35.1267 27.1946 34.6559 27.1048 34.217 27.2271C33.778 27.3495 33.4215 27.6698 33.2532 28.0931C32.9232 27.8463 32.5051 27.7495 32.1002 27.8262V21.4666C32.1002 20.6566 31.4436 20 30.6336 20H24.0337C23.2237 20 22.5671 20.6566 22.5671 21.4666V26.289C22.4601 26.2582 22.3502 26.2395 22.2392 26.2333H22.1743C21.6211 26.2358 21.1571 26.6518 21.0944 27.2013C21.0346 27.7074 20.9366 28.2082 20.8011 28.6995C20.7196 28.9669 20.6199 29.2284 20.5027 29.482C20.26 29.9592 20.1152 30.48 20.0765 31.0139C20.0663 31.3293 20.0791 31.6643 20.0913 31.9874C20.1026 32.2881 20.1146 32.5987 20.1074 32.8851C20.1022 33.0783 20.0858 33.3764 20.0678 33.7126C20.0279 34.4459 19.9784 35.3581 20.0109 35.7939C20.0181 36.4547 20.2494 37.0935 20.6669 37.6059ZM32.9892 28.8536L33.4002 29.46C33.4257 29.4959 33.4575 29.527 33.494 29.5517C33.5009 29.5564 33.5076 29.5616 33.5149 29.5659C33.5501 29.5877 33.5889 29.6033 33.6293 29.6122H33.6466C33.6656 29.6161 33.6851 29.6185 33.7045 29.6191C33.7205 29.618 33.7364 29.6156 33.7522 29.6122C33.7643 29.6122 33.7757 29.6096 33.7888 29.607C33.8324 29.5978 33.8737 29.5805 33.911 29.556C34.0785 29.4426 34.1225 29.2148 34.0092 29.0471C33.7819 28.7117 33.8697 28.2557 34.205 28.0286C34.5404 27.8013 34.9964 27.889 35.2235 28.2243L35.6331 28.8366C35.7481 29.0006 35.9731 29.0422 36.139 28.9299C36.3048 28.8177 36.35 28.5932 36.2403 28.4256C36.1274 28.2589 36.0879 28.0529 36.1314 27.8564C36.1749 27.6597 36.2972 27.4895 36.4698 27.3858C36.8278 27.1959 37.2718 27.3129 37.4896 27.6545L39.6379 30.827C40.4021 31.9638 40.8368 33.2898 40.8941 34.6582C40.8996 34.7755 40.9065 34.8925 40.9135 35.0099C40.9312 35.3083 40.9479 35.5903 40.9384 35.8726C40.9355 35.9607 40.9303 36.0502 40.9253 36.14C40.842 36.6949 40.9333 37.262 41.1866 37.7629C41.2529 37.8602 41.2774 37.9801 41.2546 38.0957C41.2318 38.2112 41.1636 38.3127 41.0653 38.3777L37.0049 41.1908C36.803 41.3269 36.5292 41.2742 36.3921 41.073L35.6871 40.0317C35.4196 39.6626 34.9682 39.4741 34.5177 39.5434C33.8542 39.673 33.1751 39.4095 32.7728 38.8661L31.4836 36.9151V36.9111C31.4836 36.9089 31.4799 36.9077 31.4789 36.9055L30.5008 35.4256C30.2321 35.0285 30.2024 34.3495 30.5863 34.0892L30.9936 33.7772L33.4569 37.394C33.5291 37.5062 33.6563 37.5704 33.7895 37.5616C33.9226 37.5529 34.0405 37.4727 34.0973 37.352C34.154 37.2311 34.1409 37.0891 34.0627 36.981L31.4191 33.1018C31.4094 33.0721 31.3956 33.0437 31.3783 33.0177C31.3659 33.0046 31.3525 32.9923 31.3384 32.9811L27.093 26.7511C26.9465 26.5339 26.927 26.255 27.0418 26.0195C27.1568 25.784 27.3885 25.6277 27.6498 25.6094C27.9111 25.5911 28.1624 25.7137 28.3089 25.9309L31.3746 30.3932C31.4483 30.5027 31.575 30.5641 31.7065 30.5542C31.8381 30.5441 31.954 30.4644 32.0104 30.3452C32.0668 30.2259 32.0548 30.0856 31.9789 29.9778L31.7795 29.6873C31.7773 29.6841 31.7773 29.6796 31.7748 29.6764C31.5475 29.341 31.6351 28.885 31.9705 28.6577C32.3059 28.4306 32.7619 28.5182 32.9892 28.8536ZM29.167 25.882L28.9162 25.5176C28.6248 25.0777 28.1194 24.8284 27.5931 24.8645C27.0667 24.9006 26.6002 25.2167 26.3716 25.6924C26.143 26.1679 26.1875 26.7295 26.4881 27.1632L26.7914 27.6083C25.895 27.3279 25.3567 26.4139 25.546 25.4938C25.7353 24.5738 26.5907 23.9466 27.5251 24.0429C28.4595 24.1391 29.1691 24.9273 29.167 25.8667V25.882ZM29.167 20.7333V21.1001C29.167 21.3025 29.0028 21.4666 28.8004 21.4666H25.8669C25.6645 21.4666 25.5003 21.3025 25.5003 21.1001V20.7333H29.167ZM23.3004 21.4666C23.3004 21.0616 23.6287 20.7333 24.0337 20.7333H24.767V21.1001C24.767 21.7075 25.2595 22.2 25.8669 22.2H28.8004C29.4078 22.2 29.9003 21.7075 29.9003 21.1001V20.7333H30.6336C31.0386 20.7333 31.3669 21.0616 31.3669 21.4666V28.2104C31.2392 28.3336 31.1353 28.4794 31.0604 28.6406L29.7489 26.7313C29.8491 26.454 29.9004 26.1615 29.9003 25.8667C29.9003 24.4491 28.7512 23.3 27.3336 23.3C25.9161 23.3 24.767 24.4491 24.767 25.8667C24.767 27.2842 25.9161 28.4333 27.3336 28.4333H27.3517L30.5782 33.1699L30.1569 33.4934C29.4097 33.9993 29.4182 35.1337 29.8907 35.8323L30.5738 36.8667H24.0337C23.6287 36.8667 23.3004 36.5383 23.3004 36.1333V31.7825C23.7322 30.8441 23.9803 29.8318 24.0315 28.8H24.0337C24.0337 27.6813 23.6879 27.0506 23.3004 26.6946V21.4666ZM20.8 33.7525C20.8183 33.4079 20.8349 33.1021 20.8404 32.9037C20.848 32.5942 20.8359 32.2719 20.8241 31.9599C20.8117 31.6346 20.8 31.3278 20.8099 31.0381C20.8463 30.5972 20.9698 30.168 21.1736 29.7754C21.3047 29.4914 21.4158 29.1988 21.5066 28.8997C21.6523 28.3714 21.7575 27.8326 21.8215 27.2882C21.8403 27.107 21.992 26.9687 22.1743 26.9666H22.234C22.3881 26.9781 22.5365 27.0296 22.6646 27.1159C22.6936 27.1472 22.728 27.1733 22.7661 27.1926C23.0337 27.4202 23.3004 27.876 23.3004 28.8C23.298 28.8177 23.2995 28.8354 23.3047 28.8524C23.3679 29.9327 22.5867 31.6801 22.4031 31.7718C22.2502 31.8466 22.1694 32.0173 22.2087 32.183C22.248 32.3485 22.3969 32.4648 22.5671 32.463V36.1333C22.5671 36.9433 23.2237 37.6001 24.0337 37.6001H29.4838C29.1146 37.9376 28.7067 38.2303 28.2686 38.4719C27.9204 38.6671 27.7035 39.0341 27.7003 39.4333V40.8999C27.7003 41.1025 27.5362 41.2667 27.3336 41.2667H22.9336C22.7312 41.2667 22.5671 41.1025 22.5671 40.8999V39.818C22.514 39.2027 22.2797 38.6171 21.8935 38.1353C21.8279 38.0356 21.7632 37.9373 21.7031 37.8394C21.5351 37.567 21.3908 37.3627 21.2679 37.185C20.9272 36.7805 20.7409 36.2684 20.7421 35.7395C20.7135 35.3504 20.7615 34.4642 20.8 33.7525Z" fill="white"/>
<path d="M23.666 40.5334H24.0328C24.2352 40.5334 24.3993 40.3692 24.3993 40.1666C24.3993 39.9642 24.2352 39.8 24.0328 39.8H23.666C23.4636 39.8 23.2994 39.9642 23.2994 40.1666C23.2994 40.3692 23.4636 40.5334 23.666 40.5334Z" fill="white"/>
<path d="M25.4995 40.5334H26.5994C26.802 40.5334 26.9662 40.3692 26.9662 40.1666C26.9662 39.9642 26.802 39.8 26.5994 39.8H25.4995C25.2969 39.8 25.1328 39.9642 25.1328 40.1666C25.1328 40.3692 25.2969 40.5334 25.4995 40.5334Z" fill="white"/>
<path d="M37.2373 40.0715C37.3105 40.0716 37.382 40.0496 37.4426 40.0085L37.7462 39.8031C37.857 39.7307 37.9201 39.6042 37.9114 39.4721C37.9026 39.3398 37.8234 39.2228 37.7039 39.1656C37.5846 39.1084 37.4436 39.12 37.3352 39.196L37.0315 39.4013C36.8981 39.4916 36.8393 39.6584 36.8867 39.8125C36.9338 39.9664 37.0762 40.0716 37.2373 40.0715Z" fill="white"/>
<path d="M38.7547 39.0443C38.8279 39.0443 38.8994 39.0223 38.96 38.9813L40.2665 38.0965C40.3825 38.0265 40.4503 37.8979 40.4429 37.7626C40.4355 37.6272 40.3539 37.507 40.2309 37.4499C40.1079 37.393 39.9635 37.4086 39.8554 37.4904L38.5489 38.3752C38.4151 38.4654 38.3562 38.6324 38.4034 38.7866C38.4507 38.9409 38.5934 39.0461 38.7547 39.0458V39.0443Z" fill="white"/>
</g>
<defs>
<clipPath id="clip0_1_126">
<rect width="22" height="22" fill="white" transform="translate(20 20)"/>
</clipPath>
</defs>
</svg>
