<svg width="62" height="62" viewBox="0 0 62 62" fill="none" xmlns="http://www.w3.org/2000/svg">
<circle cx="31" cy="31" r="31" fill="#FFD400"/>
<path d="M40.4599 29.9417L39.8902 27.6629C40.046 27.6298 40.1628 27.4916 40.1628 27.326V26.9586C40.1628 26.1608 39.5138 25.5118 38.7161 25.5118H36.1211V24.754C36.1211 24.3614 35.8018 24.0421 35.4092 24.0421H22.1816C21.789 24.0421 21.4697 24.3614 21.4697 24.754V31.0003C21.4697 31.1906 21.6239 31.3448 21.8142 31.3448C22.0044 31.3448 22.1587 31.1906 22.1587 31.0003V24.754C22.1587 24.7413 22.1689 24.731 22.1816 24.731H35.4092C35.4218 24.731 35.4321 24.7413 35.4321 24.754V31.0004C35.4321 31.1906 35.5863 31.3449 35.7766 31.3449C35.9668 31.3449 36.1211 31.1907 36.1211 31.0004V30.6099H40.1846C40.1849 30.6099 40.1852 30.61 40.1855 30.61C40.1858 30.61 40.1861 30.61 40.1864 30.61C40.6864 30.6103 41.111 30.9385 41.2569 31.3907H40.1857C39.9955 31.3907 39.8413 31.545 39.8413 31.7352V32.4701C39.8413 33.0652 40.3254 33.5494 40.9206 33.5494H41.311V35.065H40.4103C40.1144 34.2107 39.3022 33.5953 38.3486 33.5953C37.3949 33.5953 36.5827 34.2107 36.2868 35.065H36.121V32.47C36.121 32.2798 35.9668 32.1256 35.7765 32.1256C35.5863 32.1256 35.432 32.2798 35.432 32.47V35.065H28.2851C27.9892 34.2106 27.1771 33.5952 26.2234 33.5952C25.2697 33.5952 24.4575 34.2106 24.1617 35.065H22.1816C22.1689 35.065 22.1587 35.0547 22.1587 35.042V34.2842H23.6514C23.8416 34.2842 23.9958 34.13 23.9958 33.9397C23.9958 33.7494 23.8416 33.5952 23.6514 33.5952H20.3445C20.1543 33.5952 20 33.7494 20 33.9397C20 34.13 20.1542 34.2842 20.3445 34.2842H21.4697V35.042C21.4697 35.4346 21.7891 35.7539 22.1817 35.7539H24.0424C24.0423 35.7616 24.0418 35.7692 24.0418 35.7769C24.0418 36.9798 25.0205 37.9585 26.2234 37.9585C27.4263 37.9585 28.405 36.9798 28.405 35.7769C28.405 35.7691 28.4045 35.7616 28.4044 35.7539H36.1676C36.1675 35.7616 36.1669 35.7692 36.1669 35.7769C36.1669 36.9798 37.1456 37.9585 38.3486 37.9585C39.5515 37.9585 40.5302 36.9798 40.5302 35.7769C40.5302 35.7691 40.5297 35.7616 40.5296 35.7539H41.6555C41.8457 35.7539 42 35.5997 42 35.4094V31.7351C42 30.828 41.3307 30.0743 40.4599 29.9417ZM36.1211 26.2008H38.7161C39.1339 26.2008 39.4739 26.5407 39.4739 26.9586V26.9815H36.1211V26.2008ZM36.1211 29.921V27.6705H39.182L39.7446 29.921H36.1211ZM26.2234 37.2696C25.4003 37.2696 24.7307 36.6001 24.7307 35.7769C24.7307 34.9538 25.4003 34.2843 26.2234 34.2843C27.0464 34.2843 27.7161 34.9538 27.7161 35.7769C27.7161 36.6001 27.0464 37.2696 26.2234 37.2696ZM38.3486 37.2696C37.5256 37.2696 36.856 36.6001 36.856 35.7769C36.856 34.9538 37.5256 34.2843 38.3486 34.2843C39.1717 34.2843 39.8413 34.9538 39.8413 35.7769C39.8413 36.6001 39.1717 37.2696 38.3486 37.2696ZM41.3111 32.8604H40.9207C40.7054 32.8604 40.5303 32.6853 40.5303 32.47V32.0796H41.311V32.8604H41.3111Z" fill="white"/>
<path d="M26.2236 35.065C25.8311 35.065 25.5117 35.3844 25.5117 35.7769C25.5117 36.1695 25.8311 36.4888 26.2236 36.4888C26.6162 36.4888 26.9355 36.1695 26.9355 35.7769C26.9355 35.3844 26.6162 35.065 26.2236 35.065Z" fill="white"/>
<path d="M38.3486 35.065C37.9561 35.065 37.6367 35.3844 37.6367 35.7769C37.6367 36.1695 37.9561 36.4888 38.3486 36.4888C38.7412 36.4888 39.0605 36.1695 39.0605 35.7769C39.0605 35.3844 38.7412 35.065 38.3486 35.065Z" fill="white"/>
<path d="M34.3072 33.5948H29.1632C28.9729 33.5948 28.8187 33.749 28.8187 33.9392C28.8187 34.1295 28.9729 34.2837 29.1632 34.2837H34.3072C34.4974 34.2837 34.6517 34.1295 34.6517 33.9392C34.6517 33.749 34.4975 33.5948 34.3072 33.5948Z" fill="white"/>
<path d="M25.4889 32.125H21.0797C20.8894 32.125 20.7352 32.2792 20.7352 32.4695C20.7352 32.6597 20.8894 32.814 21.0797 32.814H25.4889C25.6791 32.814 25.8333 32.6597 25.8333 32.4695C25.8333 32.2792 25.6791 32.125 25.4889 32.125Z" fill="white"/>
<path d="M31.9783 27.4496C31.8438 27.3151 31.6256 27.3151 31.4911 27.4497L28.4278 30.5129L26.8342 28.9194C26.6997 28.7848 26.4816 28.7848 26.3471 28.9194C26.2126 29.0539 26.2126 29.272 26.3471 29.4065L28.1843 31.2437C28.2515 31.311 28.3397 31.3446 28.4278 31.3446C28.5159 31.3446 28.6042 31.311 28.6714 31.2437L31.9782 27.9368C32.1128 27.8022 32.1128 27.5842 31.9783 27.4496Z" fill="white"/>
</svg>
