<svg width="62" height="62" viewBox="0 0 62 62" fill="none" xmlns="http://www.w3.org/2000/svg">
<circle cx="31" cy="31" r="31" fill="#7BBB66"/>
<g clip-path="url(#clip0_1_107)">
<path d="M41.3125 33.7498C40.933 33.7498 40.625 34.0578 40.625 34.4373V39.2498H21.375V30.9998H28.9375C29.317 30.9998 29.625 30.6918 29.625 30.3123C29.625 29.9328 29.317 29.6248 28.9375 29.6248H21.375V26.8748H28.9375C29.317 26.8748 29.625 26.5668 29.625 26.1873C29.625 25.8078 29.317 25.4998 28.9375 25.4998H21.375C20.616 25.4998 20 26.1158 20 26.8748V39.2498C20 40.0088 20.616 40.6248 21.375 40.6248H40.625C41.384 40.6248 42 40.0088 42 39.2498V34.4373C42 34.0578 41.692 33.7498 41.3125 33.7498Z" fill="white"/>
<path d="M26.1878 33.7495H23.4378C23.0583 33.7495 22.7503 34.0575 22.7503 34.437C22.7503 34.8165 23.0583 35.1245 23.4378 35.1245H26.1878C26.5673 35.1245 26.8753 34.8165 26.8753 34.437C26.8753 34.0575 26.5673 33.7495 26.1878 33.7495Z" fill="white"/>
<path d="M41.5837 23.4927L36.7712 21.4302C36.5965 21.3573 36.4027 21.3573 36.228 21.4302L31.4155 23.4927C31.1639 23.6013 31.0003 23.8502 31.0003 24.1252V26.8752C31.0003 30.6578 32.3987 32.8688 36.1579 35.0344C36.2638 35.0949 36.382 35.1252 36.5003 35.1252C36.6185 35.1252 36.7368 35.0949 36.8427 35.0344C40.6019 32.8743 42.0003 30.6633 42.0003 26.8752V24.1252C42.0003 23.8502 41.8367 23.6013 41.5837 23.4927ZM40.6253 26.8752C40.6253 30.05 39.5748 31.7977 36.5003 33.6402C33.4258 31.7935 32.3753 30.0459 32.3753 26.8752V24.5789L36.5003 22.8107L40.6253 24.5789V26.8752Z" fill="white"/>
<path d="M38.9929 25.6496C38.6972 25.4159 38.2655 25.4613 38.0262 25.7569L35.8647 28.4601L35.0095 27.1814C34.7964 26.8651 34.3687 26.7813 34.0566 26.9903C33.7417 27.2006 33.6551 27.6283 33.8655 27.9431L35.2405 30.0056C35.3629 30.1885 35.5636 30.3013 35.7836 30.3123C35.7932 30.3123 35.8042 30.3123 35.8125 30.3123C36.0201 30.3123 36.2181 30.2188 36.3501 30.0538L39.1001 26.6163C39.3366 26.3193 39.2899 25.8875 38.9929 25.6496Z" fill="white"/>
</g>
<defs>
<clipPath id="clip0_1_107">
<rect width="22" height="22" fill="white" transform="translate(20 20)"/>
</clipPath>
</defs>
</svg>
